{
  "accessors": [
    {
      "bufferView": 2,
      "componentType": 5126,
      "count": 603,
      "max": [
        3.2449488639831543,
        3.2449476718902588,
        -0.2871556282043457
      ],
      "min": [
        -3.244948148727417,
        -3.2449493408203125,
        -8.1460170745849609
      ],
      "type": "VEC3"
    },
    {
      "bufferView": 2,
      "byteOffset": 7236,
      "componentType": 5126,
      "count": 603,
      "max": [
        0.99592000246047974,
        0.99993377923965454,
        1
      ],
      "min": [
        -0.99848824739456177,
        -0.99995291233062744,
        -1
      ],
      "type": "VEC3"
    },
    {
      "bufferView": 3,
      "componentType": 5126,
      "count": 603,
      "max": [
        0.99563544988632202,
        0.99772626161575317,
        0.99998098611831665,
        1
      ],
      "min": [
        -0.99771249294281006,
        -0.9927525520324707,
        -0.99998021125793457,
        1
      ],
      "type": "VEC4"
    },
    {
      "bufferView": 1,
      "componentType": 5126,
      "count": 603,
      "max": [
        0.99999994039535522,
        1
      ],
      "min": [
        0,
        0
      ],
      "type": "VEC2"
    },
    {
      "bufferView": 0,
      "componentType": 5125,
      "count": 1626,
      "max": [
        602
      ],
      "min": [
        0
      ],
      "type": "SCALAR"
    },
    {
      "bufferView": 2,
      "byteOffset": 14472,
      "componentType": 5126,
      "count": 206,
      "max": [
        0.32971528172492981,
        0.33004933595657349,
        1.2333313226699829
      ],
      "min": [
        -0.32988610863685608,
        -0.32974642515182495,
        0.2402118444442749
      ],
      "type": "VEC3"
    },
    {
      "bufferView": 2,
      "byteOffset": 16944,
      "componentType": 5126,
      "count": 206,
      "max": [
        0.99764621257781982,
        0.99078261852264404,
        0.99998891353607178
      ],
      "min": [
        -0.98930847644805908,
        -0.99747604131698608,
        -0.95537126064300537
      ],
      "type": "VEC3"
    },
    {
      "bufferView": 1,
      "byteOffset": 4824,
      "componentType": 5126,
      "count": 206,
      "max": [
        1,
        1
      ],
      "min": [
        0,
        0
      ],
      "type": "VEC2"
    },
    {
      "bufferView": 0,
      "byteOffset": 6504,
      "componentType": 5125,
      "count": 726,
      "max": [
        205
      ],
      "min": [
        0
      ],
      "type": "SCALAR"
    },
    {
      "bufferView": 2,
      "byteOffset": 19416,
      "componentType": 5126,
      "count": 151,
      "max": [
        0.99713099002838135,
        1.0104962587356567,
        0.99921309947967529
      ],
      "min": [
        -0.996970534324646,
        -1.0086220502853394,
        -0.99946212768554688
      ],
      "type": "VEC3"
    },
    {
      "bufferView": 2,
      "byteOffset": 21228,
      "componentType": 5126,
      "count": 151,
      "max": [
        0.98505055904388428,
        0.99485421180725098,
        0.99111974239349365
      ],
      "min": [
        -0.97757536172866821,
        -0.99542272090911865,
        -0.9886590838432312
      ],
      "type": "VEC3"
    },
    {
      "bufferView": 1,
      "byteOffset": 6472,
      "componentType": 5126,
      "count": 151,
      "max": [
        1,
        1
      ],
      "min": [
        0,
        0
      ],
      "type": "VEC2"
    },
    {
      "bufferView": 0,
      "byteOffset": 9408,
      "componentType": 5125,
      "count": 576,
      "max": [
        150
      ],
      "min": [
        0
      ],
      "type": "SCALAR"
    }
  ],
  "asset": {
    "extras": {
      "author": "Glitch5970 (https://sketchfab.com/Glitch5970)",
      "license": "CC-BY-4.0 (http://creativecommons.org/licenses/by/4.0/)",
      "source": "https://sketchfab.com/3d-models/lamp-ceiling-fnaf-a6d01988a7cb458aa6360936978fd531",
      "title": "Lamp Ceiling - FNaF"
    },
    "generator": "Sketchfab-10.11.2",
    "version": "2.0"
  },
  "bufferViews": [
    {
      "buffer": 0,
      "byteLength": 11712,
      "byteOffset": 0,
      "name": "floatBufferViews",
      "target": 34963
    },
    {
      "buffer": 0,
      "byteLength": 7680,
      "byteOffset": 11712,
      "byteStride": 8,
      "name": "floatBufferViews",
      "target": 34962
    },
    {
      "buffer": 0,
      "byteLength": 23040,
      "byteOffset": 19392,
      "byteStride": 12,
      "name": "floatBufferViews",
      "target": 34962
    },
    {
      "buffer": 0,
      "byteLength": 9648,
      "byteOffset": 42432,
      "byteStride": 16,
      "name": "floatBufferViews",
      "target": 34962
    }
  ],
  "buffers": [
    {
      "byteLength": 52080,
      "uri": "scene.bin"
    }
  ],
  "images": [
    {
      "uri": "textures/material_baseColor.png"
    },
    {
      "uri": "textures/material_metallicRoughness.png"
    },
    {
      "uri": "textures/material_normal.png"
    }
  ],
  "materials": [
    {
      "doubleSided": true,
      "name": "material",
      "normalTexture": {
        "index": 2,
        "scale": 1,
        "texCoord": 0
      },
      "pbrMetallicRoughness": {
        "baseColorFactor": [
          1,
          1,
          1,
          1
        ],
        "baseColorTexture": {
          "index": 0,
          "texCoord": 0
        },
        "metallicFactor": 1,
        "metallicRoughnessTexture": {
          "index": 1,
          "texCoord": 0
        },
        "roughnessFactor": 1
      }
    },
    {
      "alphaMode": "BLEND",
      "doubleSided": true,
      "name": "LightBulb",
      "pbrMetallicRoughness": {
        "baseColorFactor": [
          0.80000000000000004,
          0.80000000000000004,
          0.80000000000000004,
          0.12305629651181041
        ],
        "metallicFactor": 1,
        "roughnessFactor": 0
      }
    },
    {
      "doubleSided": true,
      "emissiveFactor": [
        1,
        1,
        1
      ],
      "name": "Glowing",
      "pbrMetallicRoughness": {
        "baseColorFactor": [
          0.80000000000000004,
          0.80000000000000004,
          0.80000000000000004,
          1
        ],
        "metallicFactor": 1,
        "roughnessFactor": 0.14862042506233897
      }
    }
  ],
  "meshes": [
    {
      "name": "Cylinder_1_0",
      "primitives": [
        {
          "attributes": {
            "NORMAL": 1,
            "POSITION": 0,
            "TANGENT": 2,
            "TEXCOORD_0": 3
          },
          "indices": 4,
          "material": 0,
          "mode": 4
        }
      ]
    },
    {
      "name": "Cylinder.001_LightBulb_0",
      "primitives": [
        {
          "attributes": {
            "NORMAL": 6,
            "POSITION": 5,
            "TEXCOORD_0": 7
          },
          "indices": 8,
          "material": 1,
          "mode": 4
        }
      ]
    },
    {
      "name": "Sphere_Glowing_0",
      "primitives": [
        {
          "attributes": {
            "NORMAL": 10,
            "POSITION": 9,
            "TEXCOORD_0": 11
          },
          "indices": 12,
          "material": 2,
          "mode": 4
        }
      ]
    }
  ],
  "nodes": [
    {
      "children": [
        1
      ],
      "name": "RootNode (gltf orientation matrix)",
      "rotation": [
        -0.70710678118654746,
        -0,
        -0,
        0.70710678118654757
      ]
    },
    {
      "children": [
        2
      ],
      "name": "RootNode (model correction matrix)"
    },
    {
      "children": [
        3
      ],
      "matrix": [
        1,
        0,
        0,
        0,
        0,
        0,
        1,
        0,
        0,
        -1,
        0,
        0,
        0,
        0,
        0,
        1
      ],
      "name": "9266004058874c109b444cdf535c4362.fbx"
    },
    {
      "children": [
        4,
        6,
        8
      ],
      "name": "RootNode"
    },
    {
      "children": [
        5
      ],
      "matrix": [
        100,
        0,
        0,
        0,
        0,
        -1.6292067939183141e-05,
        -99.999999999998678,
        0,
        0,
        99.999999999998678,
        -1.6292067939183141e-05,
        0,
        0,
        684.482177734375,
        0,
        1
      ],
      "name": "Cylinder"
    },
    {
      "mesh": 0,
      "name": "Cylinder_1_0"
    },
    {
      "children": [
        7
      ],
      "matrix": [
        100,
        0,
        0,
        0,
        0,
        -1.6292067939183141e-05,
        -99.999999999998678,
        0,
        0,
        99.999999999998678,
        -1.6292067939183141e-05,
        0,
        0,
        -164.62895202636719,
        0,
        1
      ],
      "name": "Cylinder.001"
    },
    {
      "mesh": 1,
      "name": "Cylinder.001_LightBulb_0"
    },
    {
      "children": [
        9
      ],
      "matrix": [
        15.239654541015625,
        0,
        0,
        0,
        0,
        -2.4828548715190744e-06,
        -15.239654541015424,
        0,
        0,
        15.239654541015424,
        -2.4828548715190744e-06,
        0,
        0,
        -84.595245361328125,
        0,
        1
      ],
      "name": "Sphere"
    },
    {
      "mesh": 2,
      "name": "Sphere_Glowing_0"
    }
  ],
  "samplers": [
    {
      "magFilter": 9729,
      "minFilter": 9987,
      "wrapS": 10497,
      "wrapT": 10497
    }
  ],
  "scene": 0,
  "scenes": [
    {
      "name": "OSG_Scene",
      "nodes": [
        0
      ]
    }
  ],
  "textures": [
    {
      "sampler": 0,
      "source": 0
    },
    {
      "sampler": 0,
      "source": 1
    },
    {
      "sampler": 0,
      "source": 2
    }
  ]
}

