{
  "accessors": [
    {
      "bufferView": 2,
      "componentType": 5126,
      "count": 725,
      "max": [
        0.61874306201934814,
        0.86866408586502075,
        0.05768299475312233
      ],
      "min": [
        -0.61874306201934814,
        -0.75699347257614136,
        -0.042021989822387695
      ],
      "type": "VEC3"
    },
    {
      "bufferView": 2,
      "byteOffset": 8700,
      "componentType": 5126,
      "count": 725,
      "max": [
        1,
        1,
        1
      ],
      "min": [
        -1,
        -1,
        -1
      ],
      "type": "VEC3"
    },
    {
      "bufferView": 3,
      "componentType": 5126,
      "count": 725,
      "max": [
        1,
        1,
        1,
        1
      ],
      "min": [
        -0.87084025144577026,
        -0.90301424264907837,
        -1,
        1
      ],
      "type": "VEC4"
    },
    {
      "bufferView": 1,
      "componentType": 5126,
      "count": 725,
      "max": [
        0.99800801277160645,
        0.90419870615005493
      ],
      "min": [
        0.0019920321647077799,
        0.0018047877820208669
      ],
      "type": "VEC2"
    },
    {
      "bufferView": 0,
      "componentType": 5125,
      "count": 2004,
      "max": [
        724
      ],
      "min": [
        0
      ],
      "type": "SCALAR"
    },
    {
      "bufferView": 2,
      "byteOffset": 17400,
      "componentType": 5126,
      "count": 24,
      "max": [
        0.53336435556411743,
        0.86659908294677734,
        -0.00086618249770253897
      ],
      "min": [
        -0.56310433149337769,
        -0.72009080648422241,
        -0.0041553899645805359
      ],
      "type": "VEC3"
    },
    {
      "bufferView": 2,
      "byteOffset": 17688,
      "componentType": 5126,
      "count": 24,
      "max": [
        1,
        1,
        1
      ],
      "min": [
        -1,
        -1,
        -1
      ],
      "type": "VEC3"
    },
    {
      "bufferView": 3,
      "byteOffset": 11600,
      "componentType": 5126,
      "count": 24,
      "max": [
        1,
        0,
        1,
        1
      ],
      "min": [
        0,
        0,
        -1,
        1
      ],
      "type": "VEC4"
    },
    {
      "bufferView": 1,
      "byteOffset": 5800,
      "componentType": 5126,
      "count": 24,
      "max": [
        0.99800801277160645,
        0.90385663509368896
      ],
      "min": [
        0.0019920319318771362,
        0.0018041052389889956
      ],
      "type": "VEC2"
    },
    {
      "bufferView": 0,
      "byteOffset": 8016,
      "componentType": 5125,
      "count": 36,
      "max": [
        23
      ],
      "min": [
        0
      ],
      "type": "SCALAR"
    },
    {
      "bufferView": 2,
      "byteOffset": 17976,
      "componentType": 5126,
      "count": 3752,
      "max": [
        0.66645610332489014,
        0.89902597665786743,
        0.18384578824043274
      ],
      "min": [
        -0.66645610332489014,
        -0.50242710113525391,
        0.036547146737575531
      ],
      "type": "VEC3"
    },
    {
      "bufferView": 2,
      "byteOffset": 63000,
      "componentType": 5126,
      "count": 3752,
      "max": [
        1,
        1,
        1
      ],
      "min": [
        -1,
        -1,
        -1
      ],
      "type": "VEC3"
    },
    {
      "bufferView": 3,
      "byteOffset": 11984,
      "componentType": 5126,
      "count": 3752,
      "max": [
        1,
        1,
        1,
        1
      ],
      "min": [
        -0.7676129937171936,
        -1,
        -1,
        1
      ],
      "type": "VEC4"
    },
    {
      "bufferView": 1,
      "byteOffset": 5992,
      "componentType": 5126,
      "count": 3752,
      "max": [
        0.99800801277160645,
        0.85126745700836182
      ],
      "min": [
        0.0019920319318771362,
        0.0016991366865113378
      ],
      "type": "VEC2"
    },
    {
      "bufferView": 0,
      "byteOffset": 8160,
      "componentType": 5125,
      "count": 8268,
      "max": [
        3751
      ],
      "min": [
        0
      ],
      "type": "SCALAR"
    }
  ],
  "asset": {
    "extras": {
      "author": "sudreyskr (https://sketchfab.com/sudreyskr)",
      "license": "CC-BY-4.0 (http://creativecommons.org/licenses/by/4.0/)",
      "source": "https://sketchfab.com/3d-models/old-office-window-6851ada65b23464da79eb5468c1cee3d",
      "title": "Old Office Window"
    },
    "generator": "Sketchfab-7.72.0",
    "version": "2.0"
  },
  "bufferViews": [
    {
      "buffer": 0,
      "byteLength": 41232,
      "byteOffset": 0,
      "name": "floatBufferViews",
      "target": 34963
    },
    {
      "buffer": 0,
      "byteLength": 36008,
      "byteOffset": 41232,
      "byteStride": 8,
      "name": "floatBufferViews",
      "target": 34962
    },
    {
      "buffer": 0,
      "byteLength": 108024,
      "byteOffset": 77240,
      "byteStride": 12,
      "name": "floatBufferViews",
      "target": 34962
    },
    {
      "buffer": 0,
      "byteLength": 72016,
      "byteOffset": 185264,
      "byteStride": 16,
      "name": "floatBufferViews",
      "target": 34962
    }
  ],
  "buffers": [
    {
      "byteLength": 257280,
      "uri": "scene.bin"
    }
  ],
  "images": [
    {
      "uri": "textures/Office_Window_Material_baseColor.png"
    },
    {
      "uri": "textures/Office_Window_Material_metallicRoughness.png"
    },
    {
      "uri": "textures/Office_Window_Material_normal.png"
    },
    {
      "uri": "textures/Office_Window_Glass_Material_baseColor.png"
    },
    {
      "uri": "textures/Office_Window_Glass_Material_metallicRoughness.png"
    },
    {
      "uri": "textures/Office_Window_Glass_Material_normal.png"
    },
    {
      "uri": "textures/Office_Blineds_2_Material_baseColor.png"
    },
    {
      "uri": "textures/Office_Blineds_2_Material_metallicRoughness.png"
    },
    {
      "uri": "textures/Office_Blineds_2_Material_normal.png"
    }
  ],
  "materials": [
    {
      "doubleSided": true,
      "name": "Office_Window_Material",
      "normalTexture": {
        "index": 2,
        "scale": 1,
        "texCoord": 0
      },
      "pbrMetallicRoughness": {
        "baseColorFactor": [
          1,
          1,
          1,
          1
        ],
        "baseColorTexture": {
          "index": 0,
          "texCoord": 0
        },
        "metallicFactor": 1,
        "metallicRoughnessTexture": {
          "index": 1,
          "texCoord": 0
        },
        "roughnessFactor": 1
      }
    },
    {
      "alphaMode": "BLEND",
      "doubleSided": true,
      "name": "Office_Window_Glass_Material",
      "normalTexture": {
        "index": 5,
        "scale": 1,
        "texCoord": 0
      },
      "pbrMetallicRoughness": {
        "baseColorFactor": [
          1,
          1,
          1,
          0.074885670731707321
        ],
        "baseColorTexture": {
          "index": 3,
          "texCoord": 0
        },
        "metallicFactor": 1,
        "metallicRoughnessTexture": {
          "index": 4,
          "texCoord": 0
        },
        "roughnessFactor": 1
      }
    },
    {
      "doubleSided": true,
      "name": "Office_Blineds_2_Material",
      "normalTexture": {
        "index": 8,
        "scale": 1,
        "texCoord": 0
      },
      "pbrMetallicRoughness": {
        "baseColorFactor": [
          1,
          1,
          1,
          1
        ],
        "baseColorTexture": {
          "index": 6,
          "texCoord": 0
        },
        "metallicFactor": 1,
        "metallicRoughnessTexture": {
          "index": 7,
          "texCoord": 0
        },
        "roughnessFactor": 1
      }
    }
  ],
  "meshes": [
    {
      "name": "Office_Window_Office_Window_Material_0",
      "primitives": [
        {
          "attributes": {
            "NORMAL": 1,
            "POSITION": 0,
            "TANGENT": 2,
            "TEXCOORD_0": 3
          },
          "indices": 4,
          "material": 0,
          "mode": 4
        }
      ]
    },
    {
      "name": "Office_Window_Glass_Office_Window_Glass_Material_0",
      "primitives": [
        {
          "attributes": {
            "NORMAL": 6,
            "POSITION": 5,
            "TANGENT": 7,
            "TEXCOORD_0": 8
          },
          "indices": 9,
          "material": 1,
          "mode": 4
        }
      ]
    },
    {
      "name": "Office_Blinds_2_Office_Blineds_2_Material_0",
      "primitives": [
        {
          "attributes": {
            "NORMAL": 11,
            "POSITION": 10,
            "TANGENT": 12,
            "TEXCOORD_0": 13
          },
          "indices": 14,
          "material": 2,
          "mode": 4
        }
      ]
    }
  ],
  "nodes": [
    {
      "children": [
        1
      ],
      "name": "RootNode (gltf orientation matrix)",
      "rotation": [
        -0.70710678118654746,
        -0,
        -0,
        0.70710678118654757
      ]
    },
    {
      "children": [
        2
      ],
      "name": "RootNode (model correction matrix)"
    },
    {
      "children": [
        3
      ],
      "matrix": [
        1,
        0,
        0,
        0,
        0,
        0,
        1,
        0,
        0,
        -1,
        0,
        0,
        0,
        0,
        0,
        1
      ],
      "name": "e65152a89148484ab05636d28f7a0e52.fbx"
    },
    {
      "children": [
        4,
        6,
        8
      ],
      "name": "RootNode"
    },
    {
      "children": [
        5
      ],
      "name": "Office_Window"
    },
    {
      "mesh": 0,
      "name": "Office_Window_Office_Window_Material_0"
    },
    {
      "children": [
        7
      ],
      "name": "Office_Window_Glass"
    },
    {
      "mesh": 1,
      "name": "Office_Window_Glass_Office_Window_Glass_Material_0"
    },
    {
      "children": [
        9
      ],
      "name": "Office_Blinds_2"
    },
    {
      "mesh": 2,
      "name": "Office_Blinds_2_Office_Blineds_2_Material_0"
    }
  ],
  "samplers": [
    {
      "magFilter": 9729,
      "minFilter": 9987,
      "wrapS": 10497,
      "wrapT": 10497
    }
  ],
  "scene": 0,
  "scenes": [
    {
      "name": "OSG_Scene",
      "nodes": [
        0
      ]
    }
  ],
  "textures": [
    {
      "sampler": 0,
      "source": 0
    },
    {
      "sampler": 0,
      "source": 1
    },
    {
      "sampler": 0,
      "source": 2
    },
    {
      "sampler": 0,
      "source": 3
    },
    {
      "sampler": 0,
      "source": 4
    },
    {
      "sampler": 0,
      "source": 5
    },
    {
      "sampler": 0,
      "source": 6
    },
    {
      "sampler": 0,
      "source": 7
    },
    {
      "sampler": 0,
      "source": 8
    }
  ]
}

